<?xml version="1.0" encoding="UTF-8"?>
<svg width="32px" height="26px" viewBox="0 0 32 26" version="1.1" xmlns="http://www.w3.org/2000/svg" xmlns:xlink="http://www.w3.org/1999/xlink">
    <title>87A6E14B-950E-44C2-AF5A-6ACE6A55CB1F</title>
    <g id="Discovery" stroke="none" stroke-width="1" fill="none" fill-rule="evenodd">
        <g id="Our-Partners" transform="translate(-134.000000, -987.000000)">
            <g id="Group-16" transform="translate(134.000000, 987.000000)">
                <circle id="Oval-Copy-7" fill="#FEE7E4" cx="19" cy="13" r="13"></circle>
                <g id="Group-3" transform="translate(0.000000, 2.000000)" fill="#D64928">
                    <path d="M15.390439,15.0243902 C13.6648195,15.0243902 12.1084098,13.9847415 11.4470244,12.3902439 C10.7869659,10.7942244 11.1512937,8.95882927 12.3723317,7.7377561 C13.5933698,6.51668293 15.428722,6.15239024 17.0248195,6.81244878 C18.6193171,7.47402927 19.6589659,9.03043902 19.6589659,10.7558634 C19.6589659,11.8884683 19.2092878,12.9738537 18.4089756,13.7741659 C17.6086634,14.574478 16.5233171,15.0241561 15.3906732,15.0241561 L15.390439,15.0243902 Z M15.390439,8.92682927 C14.651122,8.92682927 13.9834146,9.37194146 13.6999024,10.0563902 C13.4178888,10.7393171 13.5733776,11.5258927 14.0962341,12.0503024 C14.6206439,12.5731512 15.4072195,12.7286634 16.0901463,12.4466341 C16.7745951,12.1630985 17.2197073,11.4954146 17.2197073,10.7560976 C17.2197073,9.7454439 16.4010927,8.92682927 15.390439,8.92682927 Z" id="Fill-1"></path>
                    <path d="M7.54887805,20.8780488 C5.94977561,20.8902439 4.36136585,20.624999 2.85385366,20.0914732 C1.27609756,19.4131122 0.224273171,17.8933073 0.146536585,16.1769366 L0.146536585,4.72561951 C0.11604878,3.95426341 0.469705366,3.2195122 1.09166829,2.76222439 C1.86302439,2.26833171 2.82946341,2.18903415 3.67094634,2.5488078 C7.55508293,3.93905171 11.5000195,2.82929561 15.6709463,1.65858341 C20.0307512,0.43907122 24.5368976,-0.835309268 29.1464585,0.817139512 C30.7226927,1.49397854 31.7745171,3.01226146 31.8537756,4.72582244 L31.8537756,16.1771395 C31.8842615,16.9484956 31.5306068,17.6832468 30.9086439,18.1405346 C30.1372878,18.6344273 29.1708488,18.7137249 28.3293659,18.3539512 C24.4513171,16.9637073 20.5061463,18.0734634 16.3356098,19.2503024 C13.4636488,20.0551805 10.5123902,20.8784509 7.54887805,20.8784509 L7.54887805,20.8780488 Z M2.58536585,4.7804878 L2.58536585,16.1767805 C2.65853659,16.8612293 3.06403902,17.4664195 3.6707122,17.7926244 C7.55484878,19.1828683 11.4997854,18.0731122 15.6707122,16.9024 C20.0305171,15.6828878 24.5366634,14.4085073 29.1462244,16.0609561 C29.2331161,16.0929678 29.3230517,16.1158322 29.4145171,16.1280312 L29.4145171,4.72549463 C29.3413463,4.04104585 28.9358439,3.43585561 28.3291707,3.10965073 C24.4450341,1.71940683 20.5059512,2.82916293 16.3291707,3.99987512 C11.9693659,5.21938732 7.46321951,6.4937678 2.85365854,4.84131902 C2.76676683,4.81082927 2.67683122,4.79101268 2.58536585,4.78034341 L2.58536585,4.7804878 Z" id="Fill-2"></path>
                </g>
            </g>
        </g>
    </g>
</svg>