<?xml version="1.0" encoding="UTF-8"?>
<svg width="40px" height="28px" viewBox="0 0 40 28" version="1.1" xmlns="http://www.w3.org/2000/svg" xmlns:xlink="http://www.w3.org/1999/xlink">
    <title>B659E442-9A1B-469A-9C72-13B163A445EC</title>
    <g id="Discovery" stroke="none" stroke-width="1" fill="none" fill-rule="evenodd">
        <g id="Our-Partners" transform="translate(-511.000000, -980.000000)">
            <g id="Group-12" transform="translate(511.000000, 980.000000)">
                <circle id="Oval-Copy-6" fill="#FEE7E4" cx="27" cy="15" r="13"></circle>
                <path d="M21.8662128,13.267151 C23.582332,12.0503862 24.691542,10.1739047 24.9168986,8.10778978 C25.1422778,6.04034154 24.4632063,3.97585631 23.049071,2.42915909 C21.633465,0.883980424 19.6168327,0 17.5000041,0 C15.3831756,0 13.366581,0.883980424 11.9509373,2.42915909 C10.536802,3.97578224 9.85771536,6.04034154 10.0831097,8.10778978 C10.3084889,10.1737936 11.417714,12.0504603 13.1337955,13.267151 C11.0317493,14.4636561 9.73398795,16.667107 9.72810515,19.0543023 L9.72810515,25.8425845 C9.72810515,26.1493017 9.8518401,26.4444483 10.0727997,26.6614526 C10.2937593,26.8784717 10.5942574,27 10.9065361,27 L24.093442,27 C24.4057283,27 24.7062339,26.8784717 24.9271784,26.6614526 C25.148138,26.4444335 25.271873,26.1492943 25.271873,25.8425845 L25.271873,19.0602284 C25.2674533,16.6715886 23.9711702,14.4653228 21.8661827,13.267151 L21.8662128,13.267151 Z M17.5001173,2.33508316 C19.5638875,2.33508316 21.4257568,3.55618136 22.21541,5.42977392 C23.0050631,7.30336649 22.5674693,9.45911277 21.1062,10.8928448 C19.6449268,12.3251694 17.4500757,12.7534001 15.5439345,11.9750514 C13.6363226,11.1981101 12.3945232,9.36792579 12.3974594,7.34088575 C12.403355,4.57609039 14.6851207,2.33782396 17.5000419,2.33486094 L17.5001173,2.33508316 Z M22.9149356,24.6851543 L12.0849219,24.6851543 L12.0849219,19.059858 C12.0878671,16.6350323 14.0882802,14.6701416 16.5569833,14.667549 L18.442497,14.667549 C20.911351,14.6704416 22.9119188,16.6351804 22.9145585,19.059858 L22.9149356,24.6851543 Z M35,20.7847069 L35,25.5936907 C35,25.9004079 34.8762123,26.1955545 34.6552527,26.4125588 C34.4342931,26.6295779 34.133795,26.7511062 33.8215162,26.7511062 L28.135561,26.7511062 C27.4844554,26.7511062 26.957115,26.23317 26.957115,25.5936759 C26.957115,24.9541818 27.4844554,24.4362457 28.135561,24.4362457 L32.6430701,24.4362457 L32.6430701,20.7845439 C32.6327602,18.3640516 30.6352997,16.4066796 28.1710087,16.4037166 L27.5464511,16.4037166 C26.8953455,16.4037166 26.3680051,15.8857805 26.3680051,15.2462863 C26.3621109,15.1782887 26.3621109,15.1117355 26.3680051,15.0437342 C26.4681711,14.412944 27.0691899,13.9803428 27.7114336,14.0772707 C27.9058753,14.1062083 28.1032811,14.1206752 28.3006566,14.1177826 C30.373251,13.873274 31.9332119,12.1458177 31.9332119,10.0958513 C31.9332119,8.04588486 30.373251,6.31836925 28.3006566,6.07391998 C28.103266,6.07391998 27.9058678,6.08839063 27.7114336,6.12021719 C27.060328,6.21715244 26.4519858,5.77877341 26.3532603,5.13930892 C26.254565,4.49981481 26.7009038,3.90232153 27.3519793,3.80535665 C27.6583752,3.75905944 27.9677126,3.73590271 28.27705,3.73590271 C30.1168966,3.73301818 31.869821,4.50270376 33.0952918,5.84965629 C34.3208757,7.19805329 34.9027452,8.99497768 34.6920956,10.7904946 C34.481446,12.5860116 33.5003755,14.2078214 31.9949437,15.2465086 C33.8701625,16.4878664 34.9970209,18.562537 35,20.7847661 L35,20.7847069 Z M8.66158317,15.2060781 C8.66158317,15.5127953 8.53784822,15.8079419 8.31688864,16.0249462 C8.09592906,16.2419653 7.79543096,16.3634936 7.48315218,16.3634936 L6.82910518,16.3634936 C5.6388935,16.3649418 4.49725266,16.8322436 3.65759569,17.66126 C2.81940942,18.4917208 2.35100935,19.6158541 2.35689215,20.7848772 L2.35689215,24.436579 L6.89381601,24.436579 C7.54492161,24.436579 8.07226209,24.9545152 8.07226209,25.5940093 C8.07226209,26.2335034 7.54492161,26.7514395 6.89381601,26.7514395 L1.17844607,26.7514395 C0.527340477,26.7514395 0,26.2335034 0,25.5940093 L0,20.7850254 C0.00294592663,18.5627593 1.12983753,16.4879035 3.0050571,15.2467678 C1.49811607,14.209414 0.514104171,12.5890116 0.300513554,10.7937169 C0.0883932602,8.99679253 0.667306308,7.19846071 1.89143461,5.84843404 C3.1170189,4.49859256 4.8699433,3.72887366 6.71118515,3.7303161 C7.02052631,3.7303161 7.32985992,3.75346674 7.63625589,3.79976395 C8.28736149,3.89669919 8.7337003,4.49422211 8.6349748,5.13371622 C8.53627947,5.77321034 7.92790716,6.21158936 7.27680156,6.11462449 C7.08235984,6.08279423 6.8849541,6.06832728 6.68757852,6.06832728 C4.61498413,6.31283581 3.05502321,8.04029215 3.05502321,10.0902586 C3.05502321,12.140225 4.61498413,13.8677406 6.68757852,14.1121899 C6.88496918,14.1150825 7.08236738,14.1006156 7.27680156,14.071678 C7.91904524,13.9747427 8.5200716,14.4073327 8.62023008,15.0381415 C8.63790489,15.0931204 8.65116382,15.1495437 8.66147758,15.205967 L8.66158317,15.2060781 Z" id="Fill-1" fill="#D64928"></path>
            </g>
        </g>
    </g>
</svg>