<?xml version="1.0" encoding="UTF-8"?>
<svg width="36px" height="31px" viewBox="0 0 36 31" version="1.1" xmlns="http://www.w3.org/2000/svg" xmlns:xlink="http://www.w3.org/1999/xlink">
    <title>9D63A00B-A888-4D1D-8FDF-0CA05F5CF15E</title>
    <g id="Discovery" stroke="none" stroke-width="1" fill="none" fill-rule="evenodd">
        <g id="Our-Partners" transform="translate(-898.000000, -974.000000)">
            <g id="Group-14" transform="translate(899.000000, 975.000000)">
                <circle id="Oval" fill="#FEE7E4" cx="21" cy="16" r="13"></circle>
                <path d="M34,16.7894737 C34,16.3691263 33.6605893,16.0263158 33.2444444,16.0263158 L31.9606044,16.0263158 L30.2222222,9.00602632 C29.4666667,5.95339474 26.7469689,3.81578947 23.6111111,3.81578947 L21.5333333,3.81578947 L21.5333333,0.763157895 C21.5333333,0.342810526 21.1939227,0 20.7777778,0 L13.2222222,0 C12.8060622,0 12.4666667,0.342825789 12.4666667,0.763157895 L12.4666667,3.81578947 L10.3888889,3.81578947 C7.25303111,3.81578947 4.53333333,5.95324211 3.77777778,9.00602632 L2.03939556,16.0263158 L0.755555556,16.0263158 C0.339395178,16.0263158 0,16.3691416 0,16.7894737 C0,19.3085053 2.03939556,21.3684211 4.53333333,21.3684211 L4.94949333,21.3684211 C4.23232,22.1703474 3.77777778,23.2375474 3.77777778,24.4210526 C3.77777778,26.9400842 5.81717333,29 8.31111111,29 C10.5393956,29 12.4281333,27.3589053 12.7692667,25.1842105 L21.2307333,25.1842105 C21.6085111,27.3589053 23.4590178,29 25.6888889,29 C28.1828267,29 30.2222222,26.9400842 30.2222222,24.4210526 C30.2222222,23.2375474 29.7691911,22.1703474 29.0505067,21.3684211 L29.4666667,21.3684211 C31.9606044,21.3684211 34,19.3085053 34,16.7894737 Z M13.9777778,1.52631579 L20.0222222,1.52631579 L20.0222222,3.81578947 L13.9777778,3.81578947 L13.9777778,1.52631579 Z M5.25035556,9.38760526 C5.85540444,7.02063289 7.97152667,5.34210526 10.3888889,5.34210526 L23.6111111,5.34210526 C26.0282844,5.34210526 28.1444444,7.02044211 28.7496444,9.38760526 L30.3729178,16.0263158 L3.62738444,16.0263158 L5.25035556,9.38760526 Z M1.6244078,17.5526316 L32.3749133,17.5526316 C32.0355027,18.8493895 30.8638022,19.8421053 29.4663267,19.8421053 L4.53299333,19.8421053 C3.13551778,19.8421053 1.92693111,18.8493895 1.6244078,17.5526316 L1.6244078,17.5526316 Z M21.2304689,23.6578947 L12.7690022,23.6578947 C12.6184804,22.7799579 12.2407178,22.0168 11.6740511,21.3684211 L22.3270067,21.3684211 C21.76034,22.0168 21.3825622,22.7799579 21.2305822,23.6578947 L21.2304689,23.6578947 Z M8.31084667,27.4736842 C6.64922889,27.4736842 5.28862444,26.0993895 5.28862444,24.4210526 C5.28862444,22.7427158 6.64922889,21.3684211 8.31084667,21.3684211 C9.97246444,21.3684211 11.3330689,22.7427158 11.3330689,24.4210526 C11.3330689,26.0993895 9.97246444,27.4736842 8.31084667,27.4736842 Z M28.7108467,24.4210526 C28.7108467,26.0993895 27.3502422,27.4736842 25.6886244,27.4736842 C24.0270067,27.4736842 22.6664022,26.0993895 22.6664022,24.4210526 C22.6664022,22.7427158 24.0270067,21.3684211 25.6886244,21.3684211 C27.3502422,21.3684211 28.7108467,22.7427158 28.7108467,24.4210526 Z" id="Fill-1" stroke="#D64928" fill="#D64928"></path>
            </g>
        </g>
    </g>
</svg>