<?xml version="1.0" encoding="UTF-8" standalone="no"?>
<svg width="360px" height="57px" viewBox="0 0 360 57" version="1.1" xmlns="http://www.w3.org/2000/svg" xmlns:xlink="http://www.w3.org/1999/xlink">
    <!-- Generator: Sketch 39.1 (31720) - http://www.bohemiancoding.com/sketch -->
    <title>logo__horizontal</title>
    <desc>Created with Sketch.</desc>
    <defs></defs>
    <g id="Logo-v2" stroke="none" stroke-width="1" fill="none" fill-rule="evenodd">
        <g id="logo__horizontal">
            <g>
                <g id="sign" fill="#1999E3">
                    <path d="M77.9933155,21.5953723 C77.9343117,21.5953723 77.8755008,21.5969148 77.8166899,21.5974933 C73.6098768,9.10335297 61.7994858,0.104895554 47.8869416,0.104895554 C33.9730477,0.104895554 22.1618854,9.10508838 17.9562292,21.6011569 C7.99751473,21.8462346 0,29.9958864 0,40.0134119 C0,45.1594644 2.11121585,49.8118907 5.51415104,53.1535083 C5.88919122,53.5219925 6.48019282,53.5580503 6.89456883,53.234301 C7.34558115,52.8822067 7.84094269,52.5191216 8.38142475,52.1544938 C10.1285913,50.8542903 12.524992,49.7100803 14.7191216,48.9141082 C15.0135619,48.8113337 16.4219389,48.0442849 15.636572,45.977804 C13.6177183,43.9099732 12.0897911,40.5656561 12.0897911,37.2766792 C12.0897911,32.2374505 15.420225,29.5942367 19.3212212,29.5942367 C23.21624,29.5942367 26.5665345,32.2374505 26.5665345,37.2766792 C26.5665345,40.5550509 25.0324371,43.8854847 23.018211,45.9533155 L23.0305517,45.9533155 C22.2635029,48.2959186 23.4985324,48.8541403 23.6901982,48.9141082 C24.3695126,49.1395179 25.0619389,49.3969363 25.7466524,49.6807713 C26.0941189,49.8248099 26.1808891,50.2808356 25.910166,50.5419175 C24.0648527,52.3237922 22.9881307,54.5942796 22.4227745,56.1796679 C22.2376647,56.6989395 22.8780289,57.1142796 23.2798715,56.7367327 C24.6408141,55.4592823 26.4575897,53.93579 28.7436958,52.3934012 C31.7488377,50.1570434 35.8704231,48.1890948 39.6441564,46.8200536 C40.1507017,46.6432351 42.5729405,45.3239422 41.2220246,41.769834 C37.7496733,38.2132191 35.1216926,32.4613176 35.1216926,26.8042849 C35.1216926,18.1369041 40.8498768,13.5907231 47.5595287,13.5907231 C54.2587681,13.5907231 60.0212748,18.1369041 60.0212748,26.8042849 C60.0212748,32.4428066 57.3826888,38.1709909 53.918436,41.7276058 L53.9394537,41.7276058 C52.6203535,45.7566363 54.7442957,46.7170862 55.0740225,46.8200536 C58.9206427,48.0971184 63.017354,49.9597858 66.0523835,52.1180503 C68.5905088,53.6816497 70.6421425,55.2797643 72.2198179,56.6729084 C72.6276379,57.0331012 73.2456347,56.6139047 73.0632244,56.1011891 C72.5017247,54.5219711 71.3976219,52.196722 69.4975469,50.3986502 C69.2231601,50.1389181 69.3089663,49.6834708 69.65624,49.534226 C70.2393358,49.2833637 70.8235886,49.0529405 71.3943439,48.845849 C71.6899411,48.7426888 73.1027531,47.9731334 72.3148795,45.8999036 C70.2892769,43.8251312 68.7563364,40.4698232 68.7563364,37.1700482 C68.7563364,32.1140439 72.0977611,29.4619604 76.0116765,29.4619604 C79.9196144,29.4619604 83.2810927,32.1140439 83.2810927,37.1700482 C83.2810927,40.4590252 81.7419818,43.8004499 79.721007,45.8752223 L79.7333476,45.8752223 C78.9637922,48.2255383 80.2028709,48.7856883 80.395308,48.845849 C83.6137118,49.9144724 87.1329191,51.685549 88.6924692,53.6604392 C89.065774,54.1330477 89.7612855,54.193594 90.2117193,53.7938725 C94.014376,50.4200536 96.4113551,45.4969041 96.4113551,40.0134119 C96.4113551,29.8414355 88.1652919,21.5953723 77.9933155,21.5953723" id="sign-icon"></path>
                </g>
                <g id="name" transform="translate(115.500803, 5.591859)" fill="#37474F">
                    <path d="M18.3459239,14.1364114 C18.3459239,16.2283449 17.9973005,18.1074022 17.2805785,19.7153508 C15.9244563,19.5603214 14.4134976,19.4440493 13.4837065,19.4440493 C12.0695447,19.4440493 10.1129727,19.7153508 8.85384039,20.2965185 C7.38163899,20.9744831 6.41309052,22.2723728 6.41309052,24.9844242 L6.41309052,44.452962 C4.61135512,45.3249063 2.51922871,45.6733369 0.136518479,45.6733369 L0.136518479,22.1755758 C0.136518479,18.4367434 1.5894376,16.4996465 4.90193894,15.1629995 C7.49791109,14.1169363 10.8104124,13.574526 13.4061918,13.574526 C14.9559079,13.574526 16.8156829,13.76812 18.3459239,14.1364114" id="Fill-4"></path>
                    <path d="M41.5536797,26.9602785 C43.6070487,26.9602785 44.1687413,26.0692448 44.1687413,24.7325978 C44.1687413,21.2263096 40.3720621,19.0566685 36.1878093,19.0566685 C31.3836315,19.0566685 27.6060418,21.9044671 26.6762507,26.9602785 L41.5536797,26.9602785 L41.5536797,26.9602785 Z M37.1176004,45.6733369 C26.6567756,45.6733369 20.2641243,39.1644135 20.2641243,29.6337654 C20.2641243,20.1609641 26.5599786,13.574526 36.2263739,13.574526 C44.4205678,13.574526 50.2902839,18.3011891 50.2902839,26.0110123 C50.2902839,30.5635565 48.2369148,31.9194858 43.4132619,31.9194858 L26.6374933,31.9194858 C27.5480021,37.0917622 31.5191859,39.9586502 37.3694269,39.9586502 C40.25579,39.9586502 43.2971826,39.2614033 45.4085913,38.5639636 C46.1640707,40.1331548 46.4741296,41.9734547 46.4741296,44.0268238 C43.8588752,44.9566149 40.5851312,45.6733369 37.1176004,45.6733369 L37.1176004,45.6733369 Z" id="Fill-5"></path>
                    <path d="M54.3385967,29.6337654 C54.3385967,20.1802464 60.7700054,13.574526 71.1920728,13.574526 C74.6208463,13.574526 77.8560257,14.291248 80.3357258,15.1629995 C80.3357258,17.2163685 80.0252812,19.0179111 79.2886984,20.5676272 C77.2748581,19.8703803 74.2139904,19.2504553 71.5987359,19.2504553 C64.8381789,19.2504553 60.634451,23.3571934 60.634451,29.6337654 C60.634451,35.9099518 64.8574612,39.8813283 71.4826567,39.8813283 C74.3109802,39.8813283 77.3720407,39.1644135 79.4834494,38.4478843 C80.2007499,40.0556401 80.5478307,41.9346974 80.5478307,44.0268238 C77.9331548,44.9566149 74.6596036,45.6733369 71.2113551,45.6733369 C60.7700054,45.6733369 54.3385967,39.0870916 54.3385967,29.6337654" id="Fill-6"></path>
                    <path d="M104.97654,14.1364114 C104.97654,16.2283449 104.627531,18.1074022 103.91023,19.7153508 C102.554687,19.5603214 101.044885,19.4440493 100.113551,19.4440493 C98.7001607,19.4440493 96.7430102,19.7153508 95.4838779,20.2965185 C94.0126406,20.9744831 93.0427424,22.2723728 93.0427424,24.9844242 L93.0427424,44.452962 C91.2417783,45.3249063 89.1496518,45.6733369 86.7663631,45.6733369 L86.7663631,22.1755758 C86.7663631,18.4367434 88.2202464,16.4996465 91.5329405,15.1629995 C94.1283342,14.1169363 97.4410284,13.574526 100.036422,13.574526 C101.586717,13.574526 103.445528,13.76812 104.97654,14.1364114" id="Fill-7"></path>
                    <path d="M115.709052,31.3772683 C115.709052,36.239293 118.34301,39.9006106 123.340975,39.9006106 C124.154687,39.9006106 126.188966,39.8038136 127.854954,39.125849 C129.617354,38.4089341 130.236315,37.2853562 130.236315,35.6000857 L130.236315,14.7949009 C132.039207,13.9231494 134.131334,13.574526 136.512694,13.574526 L136.512694,37.0724799 C136.512694,40.8111194 135.002892,42.8064488 131.748045,44.0850562 C129.191216,45.0923621 125.471666,45.6733369 122.779861,45.6733369 C114.565613,45.6733369 109.432673,40.2687092 109.432673,31.8807284 L109.432673,14.7949009 C111.233637,13.9231494 113.325763,13.574526 115.709052,13.574526 L115.709052,31.3772683" id="Fill-8"></path>
                    <path d="M151.198072,44.452962 C149.395179,45.3249063 147.303053,45.6733369 144.921693,45.6733369 L144.921693,14.7949009 C146.722657,13.9231494 148.814783,13.574526 151.198072,13.574526 L151.198072,44.452962 L151.198072,44.452962 Z M152.204606,4.25675415 C152.204606,6.54266738 150.365078,8.38296733 148.0782,8.38296733 C145.793251,8.38296733 143.951794,6.54266738 143.951794,4.25675415 C143.951794,1.97084092 145.793251,0.130540975 148.0782,0.130540975 C150.365078,0.130540975 152.204606,1.97084092 152.204606,4.25675415 L152.204606,4.25675415 Z" id="Fill-9"></path>
                    <path d="M168.205035,19.8896626 L168.205035,34.7478093 C168.205035,39.1451312 171.149438,39.8813283 176.554258,39.8813283 C176.554258,41.992737 176.243814,43.8525121 175.470595,45.4409855 C174.6376,45.6152973 174.074558,45.6733369 173.183717,45.6733369 C169.909588,45.6733369 164.950187,44.8985753 162.937118,40.5012533 C162.025067,38.5252062 161.928656,36.2587681 161.928656,33.8180182 L161.928656,19.8896626 L156.369577,19.8896626 C156.369577,17.7007392 156.680021,15.8022067 157.472523,14.1556936 L161.928656,14.1556936 L161.928656,5.39961435 C163.72962,4.52786288 165.821746,4.17923942 168.205035,4.17923942 L168.205035,14.1556936 L176.749009,14.1556936 C176.749009,16.3253348 176.419282,18.2429566 175.624853,19.8896626 L168.205035,19.8896626" id="Fill-10"></path>
                    <path d="M201.486235,26.9602785 C203.539796,26.9602785 204.102839,26.0692448 204.102839,24.7325978 C204.102839,21.2263096 200.30616,19.0566685 196.121907,19.0566685 C191.316765,19.0566685 187.539368,21.9044671 186.609963,26.9602785 L201.486235,26.9602785 L201.486235,26.9602785 Z M197.051312,45.6733369 C186.59068,45.6733369 180.198607,39.1644135 180.198607,29.6337654 C180.198607,20.1609641 186.494269,13.574526 196.160471,13.574526 C204.353508,13.574526 210.223032,18.3011891 210.223032,26.0110123 C210.223032,30.5635565 208.16947,31.9194858 203.346974,31.9194858 L186.571398,31.9194858 C187.481521,37.0917622 191.451741,39.9586502 197.301982,39.9586502 C200.188538,39.9586502 203.23128,39.2614033 205.342689,38.5639636 C206.096626,40.1331548 206.40707,41.9734547 206.40707,44.0268238 C203.792394,44.9566149 200.518265,45.6733369 197.051312,45.6733369 L197.051312,45.6733369 Z" id="Fill-11"></path>
                    <path d="M235.581146,26.9602785 C237.634708,26.9602785 238.195822,26.0692448 238.195822,24.7325978 C238.195822,21.2263096 234.399143,19.0566685 230.21489,19.0566685 C225.411676,19.0566685 221.632351,21.9044671 220.702946,26.9602785 L235.581146,26.9602785 L235.581146,26.9602785 Z M231.144296,45.6733369 C220.683664,45.6733369 214.291591,39.1644135 214.291591,29.6337654 C214.291591,20.1609641 220.587252,13.574526 230.253455,13.574526 C238.44842,13.574526 244.317943,18.3011891 244.317943,26.0110123 C244.317943,30.5635565 242.264381,31.9194858 237.439957,31.9194858 L220.664381,31.9194858 C221.574505,37.0917622 225.546652,39.9586502 231.396893,39.9586502 C234.283449,39.9586502 237.324264,39.2614033 239.435672,38.5639636 C240.191537,40.1331548 240.501982,41.9734547 240.501982,44.0268238 C237.885378,44.9566149 234.613176,45.6733369 231.144296,45.6733369 L231.144296,45.6733369 Z" id="Fill-12"></path>
                </g>
            </g>
        </g>
    </g>
</svg>